<svg width="15" height="16" viewBox="0 0 15 16" fill="none" xmlns="http://www.w3.org/2000/svg">
<path d="M14.676 2.1066C10.8328 1.59644 7.70104 0.0556837 7.68209 0.0474553C7.56634 -0.0286568 7.40217 0.000142407 7.33061 0.0412841C7.29904 0.0556837 4.16727 1.59644 0.324121 2.1066C0.136804 2.13334 0 2.29173 0 2.47687V7.99809C0 11.5671 2.03523 13.5563 3.74002 14.5952C5.5711 15.7101 7.42532 15.9919 7.44216 15.994C7.4611 15.996 7.48004 15.9981 7.49899 15.9981C7.51793 15.9981 7.53687 15.9981 7.55581 15.994C7.57476 15.9899 9.42688 15.708 11.258 14.5952C12.9648 13.5543 15.0001 11.5651 15.0001 7.99809V2.47893C15.0001 2.29379 14.8633 2.13334 14.676 2.10865V2.1066ZM13.5 3.32457V8.00191C13.5 10.3286 12.4877 12.1318 10.4911 13.3617C9.05781 14.2458 7.66751 14.4899 7.4991 14.5176C7.3307 14.4899 5.94039 14.2458 4.50893 13.3617C2.51236 12.1318 1.50004 10.3286 1.50004 8.00006V3.32457C4.59313 2.86775 7.13235 1.69148 7.4991 1.51763C7.93884 1.73032 10.392 2.8696 13.5 3.32457Z" fill="#5A91F8"/>
<path d="M6.98396 11.6397C6.70404 11.6397 6.43674 11.5471 6.21785 11.3723L3.37653 9.11975C3.12397 8.91816 2.96612 8.63428 2.93244 8.31749C2.89877 8.0007 2.99348 7.69008 3.19974 7.44323C3.406 7.19638 3.69644 7.0421 4.02057 7.00918C4.35311 6.98038 4.66249 7.06884 4.91506 7.27043L6.80717 8.77005L10.1347 4.75873C10.3367 4.516 10.6356 4.3576 10.9555 4.32469C11.2817 4.29178 11.6037 4.38846 11.8521 4.58594C12.3719 4.99941 12.4519 5.75231 12.0289 6.26246L7.93107 11.1995C7.7227 11.4484 7.43226 11.6027 7.11024 11.6335C7.06815 11.6376 7.02605 11.6397 6.98185 11.6397H6.98396ZM4.14474 7.69831C3.99741 7.69831 3.85009 7.76208 3.75117 7.88139C3.66698 7.98424 3.62699 8.11384 3.64172 8.24549C3.65646 8.37714 3.7217 8.49646 3.82693 8.57874L6.66826 10.8312C6.77349 10.9156 6.90609 10.9567 7.04079 10.9403C7.17549 10.9279 7.29545 10.8621 7.37964 10.7613L11.4796 5.82225C11.6564 5.61037 11.6227 5.29769 11.4059 5.12489C11.3028 5.04261 11.1639 5.00147 11.0313 5.01587C10.8987 5.03027 10.7745 5.0961 10.6903 5.19484L7.1355 9.47563C7.01132 9.62374 6.78822 9.64637 6.63458 9.52705L4.46465 7.80733C4.37205 7.73122 4.25839 7.69625 4.14474 7.69625V7.69831Z" fill="#5A91F8"/>
</svg>
