<svg width="29" height="28" viewBox="0 0 29 28" fill="none" xmlns="http://www.w3.org/2000/svg">
<path d="M19.6678 14.8901C20.7287 14.8901 21.7657 14.5878 22.6478 14.0215C23.5298 13.4551 24.2173 12.6501 24.6233 11.7083C25.0293 10.7665 25.1355 9.73013 24.9285 8.7303C24.7216 7.73047 24.2107 6.81207 23.4606 6.09123C22.7104 5.37039 21.7547 4.87949 20.7142 4.68062C19.6738 4.48174 18.5953 4.58381 17.6152 4.97392C16.6351 5.36404 15.7974 6.02467 15.208 6.87229C14.6186 7.7199 14.3041 8.71643 14.3041 9.73585C14.3056 11.1024 14.8713 12.4125 15.8768 13.3788C16.8824 14.3451 18.2457 14.8886 19.6678 14.8901ZM19.6678 6.87237C20.2572 6.87237 20.8333 7.04031 21.3233 7.35495C21.8134 7.66959 22.1953 8.11681 22.4209 8.64004C22.6464 9.16328 22.7054 9.73903 22.5904 10.2945C22.4755 10.8499 22.1916 11.3602 21.7749 11.7606C21.3582 12.1611 20.8272 12.4338 20.2492 12.5443C19.6711 12.6548 19.072 12.5981 18.5275 12.3814C17.983 12.1646 17.5176 11.7976 17.1902 11.3267C16.8627 10.8558 16.688 10.3022 16.688 9.73585C16.688 8.97641 17.0019 8.24807 17.5607 7.71106C18.1196 7.17405 18.8775 6.87237 19.6678 6.87237ZM10.7282 26.3441V25.7714C10.7282 23.493 11.6701 21.308 13.3466 19.697C15.0231 18.086 17.2969 17.1809 19.6678 17.1809C22.0388 17.1809 24.3126 18.086 25.9891 19.697C27.6656 21.308 28.6074 23.493 28.6074 25.7714L28.6074 26.3441C28.6074 26.6478 28.4818 26.9392 28.2583 27.154C28.0348 27.3688 27.7316 27.4895 27.4155 27.4895C27.0994 27.4895 26.7962 27.3688 26.5726 27.154C26.3491 26.9392 26.2235 26.6478 26.2235 26.3441V25.7714C26.2235 24.1006 25.5328 22.4982 24.3034 21.3168C23.074 20.1354 21.4065 19.4717 19.6678 19.4717C17.9291 19.4717 16.2617 20.1354 15.0322 21.3168C13.8028 22.4982 13.1121 24.1006 13.1121 25.7714V26.3441C13.1121 26.6478 12.9865 26.9392 12.763 27.154C12.5395 27.3688 12.2363 27.4895 11.9202 27.4895C11.604 27.4895 11.3009 27.3688 11.0773 27.154C10.8538 26.9392 10.7282 26.6478 10.7282 26.3441ZM0.00069809 20.6171C0.000741959 19.0693 0.466997 17.5546 1.34318 16.2558C2.21936 14.9571 3.46801 13.9298 4.9384 13.298C6.40879 12.6662 8.03806 12.4568 9.62954 12.6952C11.221 12.9337 12.7067 13.6096 13.9071 14.6416C14.0254 14.7414 14.1219 14.8629 14.1911 14.9988C14.2603 15.1347 14.3007 15.2825 14.3102 15.4335C14.3196 15.5845 14.2978 15.7359 14.246 15.8788C14.1942 16.0216 14.1134 16.1533 14.0084 16.266C13.9034 16.3787 13.7761 16.4703 13.634 16.5355C13.492 16.6007 13.3378 16.6383 13.1806 16.6459C13.0233 16.6536 12.866 16.6312 12.7178 16.5801C12.5696 16.529 12.4334 16.4502 12.3171 16.3482C11.4595 15.6113 10.3984 15.1286 9.26164 14.9585C8.12492 14.7883 6.96125 14.9379 5.91107 15.3893C4.8609 15.8406 3.96911 16.5744 3.34335 17.5021C2.71759 18.4297 2.38461 19.5116 2.38459 20.6171C2.38459 20.9209 2.25901 21.2122 2.03548 21.427C1.81194 21.6418 1.50877 21.7625 1.19264 21.7625C0.87652 21.7625 0.573343 21.6418 0.34981 21.427C0.126276 21.2122 0.00069809 20.9209 0.00069809 20.6171ZM7.74835 10.3085C8.8092 10.3085 9.84623 10.0063 10.7283 9.4399C11.6104 8.87354 12.2979 8.06855 12.7038 7.12673C13.1098 6.18491 13.216 5.14856 13.0091 4.14873C12.8021 3.14889 12.2912 2.23049 11.5411 1.50965C10.791 0.788816 9.83524 0.297919 8.79477 0.0990402C7.7543 -0.0998385 6.67583 0.00223327 5.69573 0.392348C4.71563 0.782463 3.87793 1.4431 3.28855 2.29071C2.69917 3.13833 2.38459 4.13486 2.38459 5.15427C2.38617 6.52081 2.95178 7.83094 3.95734 8.79722C4.9629 9.76351 6.32628 10.307 7.74835 10.3085ZM7.74835 2.29079C8.33771 2.29079 8.91384 2.45873 9.40388 2.77337C9.89391 3.08802 10.2759 3.53523 10.5014 4.05847C10.7269 4.5817 10.7859 5.15745 10.671 5.71291C10.556 6.26837 10.2722 6.7786 9.85544 7.17906C9.43869 7.57953 8.90773 7.85225 8.32969 7.96274C7.75166 8.07323 7.15251 8.01652 6.60801 7.79979C6.06351 7.58306 5.59811 7.21604 5.27068 6.74514C4.94325 6.27424 4.76848 5.72062 4.76848 5.15427C4.76848 4.39483 5.08243 3.66649 5.64127 3.12949C6.2001 2.59248 6.95804 2.29079 7.74835 2.29079Z" fill="#5A91F8"/>
</svg>
